<?xml version="1.0" encoding="UTF-8"?>
<svg id="logo" data-name="logo" xmlns="http://www.w3.org/2000/svg" viewBox="0 0 236.17 58.68">
  <defs>
    <style>
      .cls-1 {
        letter-spacing: .06em;
      }

      .cls-2 {
        fill: #771e19;
      }

      .cls-3 {
        font-family: FuturaPT-Demi, 'FuturaPT Demi';
        font-size: 34.45px;
      }

      .cls-3, .cls-4 {
        fill: #333334;
      }

      .cls-5 {
        letter-spacing: .03em;
      }

      .cls-6 {
        fill: #c4292d;
      }

      .cls-7 {
        fill: #591b17;
      }

      .cls-8 {
        letter-spacing: -.06em;
      }

      .cls-9 {
        fill: #202020;
      }

      .cls-10 {
        fill: none;
      }

      .cls-11 {
        fill: #222221;
      }

      .cls-12 {
        fill: #ae2729;
      }
    </style>
  </defs>
  <g id="logo" data-name="logo">
    <g>
      <g>
        <g>
          <path class="cls-4" d="M76.64,38.66v1.06c-.3-.31-.62-.54-.97-.71-.42-.2-.85-.3-1.28-.3-.85,0-1.56,.31-2.13,.92-.57,.62-.85,1.37-.85,2.27,0,.96,.31,1.73,.93,2.28s1.31,.84,2.06,.84c.47,0,.93-.12,1.38-.36,.31-.16,.6-.38,.86-.64v1.06c-.67,.5-1.42,.75-2.24,.75-1.1,0-2.01-.38-2.74-1.14-.73-.76-1.1-1.69-1.1-2.8s.37-2.09,1.11-2.85c.74-.76,1.66-1.14,2.77-1.14,.82,0,1.55,.25,2.19,.76Z"/>
          <path class="cls-4" d="M90.03,44.68c-.75,.76-1.66,1.14-2.74,1.14s-2-.38-2.74-1.14-1.12-1.7-1.12-2.82,.37-2.08,1.12-2.83,1.66-1.13,2.74-1.13,1.99,.38,2.74,1.13c.75,.75,1.12,1.7,1.12,2.83s-.37,2.07-1.12,2.82Zm-.61-5.06c-.59-.61-1.3-.92-2.14-.92s-1.55,.31-2.14,.92c-.59,.61-.88,1.36-.88,2.24s.29,1.63,.88,2.24c.59,.61,1.3,.92,2.14,.92s1.55-.31,2.14-.92c.59-.61,.88-1.36,.88-2.24s-.29-1.63-.88-2.24Z"/>
          <path class="cls-4" d="M98.33,38.03h.82v6.85h2.05v.8h-2.87v-7.66Z"/>
          <path class="cls-4" d="M107.99,38.03h.82v6.85h2.05v.8h-2.87v-7.66Z"/>
          <path class="cls-4" d="M121.49,38.03v.8h-3.03v2.27h2.94v.8h-2.94v2.97h3.03v.8h-3.85v-7.66h3.85Z"/>
          <path class="cls-4" d="M132.5,42.64v-.8h3.09v.18c0,.95-.24,1.76-.71,2.42-.66,.92-1.58,1.38-2.76,1.38-1.1,0-2.01-.38-2.75-1.14-.73-.76-1.1-1.7-1.1-2.82s.37-2.06,1.11-2.82c.74-.76,1.66-1.14,2.76-1.14,.88,0,1.63,.25,2.27,.76,.33,.26,.61,.56,.86,.91l-.61,.57c-.21-.31-.45-.58-.7-.79-.51-.43-1.11-.64-1.8-.64-.88,0-1.61,.3-2.18,.91-.57,.6-.86,1.36-.86,2.26,0,.66,.16,1.23,.47,1.73,.31,.49,.69,.85,1.14,1.08,.45,.23,.92,.34,1.41,.34s.94-.12,1.34-.35,.71-.55,.93-.94c.19-.33,.29-.69,.3-1.09h-2.2Z"/>
          <path class="cls-4" d="M146.62,38.03v.8h-3.03v2.27h2.94v.8h-2.94v2.97h3.03v.8h-3.85v-7.66h3.85Z"/>
          <path class="cls-4" d="M167.03,45.68l-.87-2.16h-3.16l-.89,2.16h-.91l3.41-8.02,3.33,8.02h-.91Zm-3.7-2.96h2.51l-1.25-3.06-1.27,3.06Z"/>
          <path class="cls-4" d="M174.66,38.03h.82v6.85h2.05v.8h-2.87v-7.66Z"/>
          <path class="cls-4" d="M184.9,45.68h-.85l1.23-8.08,2.85,6.46,2.9-6.47,1.16,8.09h-.85l-.7-5.33-2.52,5.65-2.49-5.65-.73,5.33Z"/>
          <path class="cls-4" d="M204.54,45.68l-.87-2.16h-3.16l-.89,2.16h-.91l3.41-8.02,3.33,8.02h-.91Zm-3.7-2.96h2.51l-1.25-3.06-1.27,3.06Z"/>
          <path class="cls-4" d="M215.3,38.83h-1.8v6.85h-.82v-6.85h-1.8v-.8h4.43v.8Z"/>
          <path class="cls-4" d="M223.88,45.68v-3.29l-2.44-4.36h.96l1.89,3.42,1.91-3.42h.96l-2.46,4.36v3.29h-.82Z"/>
        </g>
        <text class="cls-3" transform="translate(67.61 29.99)"><tspan class="cls-5" x="0" y="0">PO</tspan><tspan class="cls-8" x="43.78" y="0">L</tspan><tspan class="cls-1" x="58" y="0">Y</tspan><tspan class="cls-5" x="78.67" y="0">TECH</tspan></text>
      </g>
      <g>
        <path class="cls-9" d="M55.71,48.11V27.45h-2.97v20.66h0c-.07,.21-.28,.72-.8,1.12-.66,.51-1.39,.5-1.59,.49h0s-44.2,0-44.2,0h0c-.21-.08-.72-.29-1.12-.81-.51-.66-.5-1.39-.49-1.59v-5.68c.95-.52,1.59-1.53,1.59-2.69,0-1.7-1.37-3.07-3.07-3.07s-3.07,1.38-3.07,3.07c0,1.16,.64,2.17,1.59,2.69v5.68c.04,.55,.21,1.9,1.22,3.2,1.22,1.58,2.86,2.04,3.35,2.15h0s44.2,0,44.2,0h0c.55-.05,1.9-.22,3.2-1.23,1.58-1.22,2.04-2.86,2.15-3.35h0ZM3.07,38c.53,0,.96,.43,.96,.96s-.43,.96-.96,.96-.96-.43-.96-.96,.43-.96,.96-.96Z"/>
        <path class="cls-6" d="M55.71,16.84V5.35c0-.36-.07-2.41-1.73-3.94-1.32-1.21-2.83-1.37-3.3-1.41H6.94c-.36,0-2.41,.07-3.94,1.73-1.21,1.32-1.37,2.83-1.41,3.3V31.96h2.97V5.04c0-.17,.07-.88,.66-1.46,.7-.68,1.59-.62,1.73-.61H50.67c.17,0,.88,.07,1.46,.66,.68,.7,.62,1.59,.61,1.73v11.49c-.95,.52-1.59,1.53-1.59,2.69,0,1.7,1.38,3.07,3.07,3.07s3.07-1.37,3.07-3.07c0-1.16-.64-2.17-1.59-2.69Zm-1.48,3.65c-.53,0-.96-.43-.96-.96s.43-.96,.96-.96,.96,.43,.96,.96-.43,.96-.96,.96Z"/>
        <g>
          <path class="cls-12" d="M41.25,31.39c-.07,.08-.14,.15-.22,.22H24.8l2.58-6.64h7.45l3.07,3.07,.05,.05,3.31,3.31Z"/>
          <line class="cls-10" x1="24.8" y1="31.61" x2="24.79" y2="31.64"/>
          <polygon class="cls-7" points="27.38 24.97 24.8 31.61 24.79 31.61 24.79 24.97 27.38 24.97"/>
          <path class="cls-6" d="M41.43,14.94H24.79s-4.46-4.47-4.46-4.47l-1.94-1.94c.09-.09,.2-.17,.31-.23h15.86c.15,.05,.29,.11,.42,.18t0,0l.96,.96s0,0,0,0l4.19,4.19,1.26,1.26s.01,.02,.02,.04Z"/>
          <path class="cls-9" d="M41.46,15V31.11c-.06,.1-.13,.19-.21,.28l-3.31-3.31-.05-.05-3.08-3.08v-7.35l1.85-.75,4.75-1.92h.01s.02,.04,.02,.06Z"/>
          <polygon class="cls-10" points="34.83 24.97 34.82 24.97 34.82 24.96 34.83 24.97"/>
          <polygon class="cls-11" points="41.42 14.94 36.67 16.87 34.82 17.62 34.82 14.94 41.42 14.94"/>
          <path class="cls-2" d="M20.33,10.47l-1.94-1.94c-.1,.09-.18,.2-.25,.32V41.04c.05,.18,.12,.36,.2,.52l.22,.22,.18-4.25c-.21-.09-.36-.31-.35-.56,.01-.32,.28-.57,.6-.56,.32,.01,.57,.28,.56,.6-.01,.25-.17,.45-.4,.52l-.19,4.63,.96,.96,.47-13.75c-.21-.09-.36-.31-.35-.55,.01-.32,.28-.57,.6-.56,.32,.01,.57,.28,.56,.6,0,.25-.17,.45-.39,.53l-.48,14.06h-.08s.92,.92,.92,.92l.4-10.79c-.21-.09-.36-.31-.35-.55,.01-.32,.28-.57,.6-.56,.32,.01,.57,.28,.56,.6,0,.25-.17,.45-.39,.53l-.41,11.17,.93,.93,.2-5.19c-.21-.09-.36-.31-.35-.55,.01-.32,.28-.57,.6-.56,.32,.01,.57,.28,.56,.6,0,.25-.17,.45-.39,.53l-.21,5.57,1.24,1.24c.24,.24,.64,.07,.64-.27V14.93l-4.46-4.46Z"/>
        </g>
        <g>
          <path class="cls-4" d="M29.15,42.42l-.38,.24c-.03-.08-.08-.15-.14-.21-.09-.08-.21-.12-.34-.12-.14,0-.25,.04-.32,.11s-.11,.17-.11,.28c0,.17,.11,.31,.34,.4l.31,.13c.49,.21,.73,.54,.73,.98,0,.32-.09,.57-.28,.77-.19,.2-.43,.3-.72,.3s-.55-.11-.73-.33c-.15-.18-.24-.4-.26-.65l.47-.11c0,.16,.04,.3,.13,.42,.1,.13,.24,.2,.41,.2,.15,0,.27-.05,.37-.15,.1-.1,.15-.24,.15-.4,0-.15-.04-.27-.12-.35-.08-.08-.19-.15-.33-.21l-.3-.13c-.42-.19-.64-.47-.64-.84,0-.24,.08-.45,.25-.62,.16-.17,.39-.26,.67-.26,.25,0,.46,.07,.63,.22,.1,.09,.18,.2,.24,.33Z"/>
          <path class="cls-4" d="M29.83,41.92h.48v3.32h-.48v-3.32Z"/>
          <path class="cls-4" d="M31.54,45.24h-.48v-3.55l2.26,2.53v-2.3h.48v3.53l-2.26-2.53v2.32Z"/>
          <path class="cls-4" d="M36.86,42.1v.6c-.26-.25-.54-.37-.85-.37-.34,0-.61,.12-.82,.36-.21,.24-.32,.54-.32,.91s.11,.65,.32,.89,.49,.36,.82,.36c.31,0,.59-.13,.84-.38v.6c-.26,.17-.55,.25-.86,.25-.43,0-.8-.15-1.1-.46-.33-.33-.5-.75-.5-1.26,0-.53,.17-.96,.5-1.3,.29-.29,.66-.43,1.13-.43,.32,0,.6,.08,.83,.24Z"/>
          <path class="cls-4" d="M39.17,41.92v.48h-1.24v.84h1.21v.48h-1.21v1.05h1.24v.48h-1.72v-3.32h1.72Z"/>
          <path class="cls-4" d="M41.67,45.24v-2.86h-.54l.26-.47h.76v3.32h-.48Z"/>
          <path class="cls-4" d="M43.54,45.36l-.35-.27,.73-1c-.05,.01-.11,.02-.17,.02-.29,0-.54-.1-.73-.31-.19-.2-.29-.46-.29-.76,0-.33,.1-.61,.31-.83s.47-.34,.8-.34,.6,.11,.8,.33c.18,.2,.27,.45,.27,.75,0,.22-.05,.43-.15,.63-.02,.05-.04,.09-.07,.13s-.05,.09-.08,.13c-.03,.05-.05,.08-.07,.1-.02,.02-.04,.06-.09,.12-.04,.06-.07,.09-.08,.11l-.87,1.19Zm.29-1.69c.18,0,.33-.07,.45-.2,.12-.14,.18-.3,.18-.49s-.06-.35-.18-.47c-.12-.13-.27-.19-.44-.19s-.32,.06-.44,.19c-.12,.13-.18,.29-.18,.49s.06,.36,.18,.49c.12,.12,.27,.18,.44,.18Z"/>
          <path class="cls-4" d="M46.89,41.67v2.47h.34v.47h-.34v.63h-.46v-.63h-1.54l2-2.94Zm-1.17,2.48h.71v-1.07l-.71,1.07Z"/>
          <path class="cls-4" d="M48.78,45.3c-.27,0-.51-.12-.71-.36-.27-.32-.4-.77-.4-1.36s.13-1.04,.4-1.36c.2-.24,.43-.36,.71-.36s.51,.12,.71,.36c.27,.32,.4,.78,.4,1.36s-.13,1.03-.4,1.36c-.2,.24-.43,.36-.71,.36Zm0-2.98c-.17,0-.31,.09-.42,.27-.14,.23-.22,.56-.22,.99s.07,.76,.22,1c.11,.18,.25,.27,.42,.27s.31-.09,.42-.27c.14-.23,.22-.56,.22-1s-.07-.77-.22-.99c-.11-.18-.25-.27-.42-.27Z"/>
        </g>
      </g>
    </g>
  </g>
</svg>